<?xml version="1.0" encoding="UTF-8"?>
<svg id="Layer_1" data-name="Layer 1" xmlns="http://www.w3.org/2000/svg" xmlns:xlink="http://www.w3.org/1999/xlink" viewBox="0 0 50 50">
  <defs>
    <style>
      .cls-1 {
        fill: #efefef;
      }

      .cls-2 {
        fill: url(#linear-gradient);
      }
    </style>
    <linearGradient id="linear-gradient" x1="15.85" y1="25" x2="34.15" y2="25" gradientUnits="userSpaceOnUse">
      <stop offset="0" stop-color="#c59b63"/>
      <stop offset="1" stop-color="#ecba76"/>
    </linearGradient>
  </defs>
  <rect class="cls-1" width="50" height="50" rx="10.32" ry="10.32"/>
  <path class="cls-2" d="M24.32,41.52c-.07-.39.05-.96,0-1.38l2.1-.06v-2.76c-.21.06-.71-.15-.77.1-.02.09.05.14.05.17v1.83h-1.29s-.09-.08-.09-.09v-3.44h3.54v4.19c.12,0,.66.05.66-.09v-4.1h1.38l.06,4.19h.66v-15.9c0-.21-.4-1.05-.53-1.27-.93-1.57-2.71-2.57-4.2-3.52v-1.29c.1-.02.18.03.26.07,2.28.98,5.78,3.83,5.91,6.37v16.99h-7.73ZM34.15,24.53c-.16-3.04-3.44-5.85-5.9-7.28-.09-.05-.16-.14-.27-.12v1.44c1.43.88,2.98,2.07,3.91,3.49.25.38.83,1.51.83,1.93v18.18h-2.1c.07.34-.09,1.16,0,1.44h3.54v-19.08ZM22.23,20.88v12.82c0,.13-.72.13-.72,0v-5.54h-1.44v7.01h3.54v-15.16c-.49.17-.95.56-1.38.87ZM27.86,20.88l-1.44-.93v13.84h-2.1v1.35s.08.09.09.09h5.45s.09-.08.09-.09v-2.7s-.08-.09-.09-.09h-1.35v1.35c0,.14-.54.08-.66.09v-12.91ZM20.07,35.89v2.1h-.66v-2.1h-3.54v5.63h.24c.15-.01.32,0,.48,0,.94-.01,1.88,0,2.82,0v-2.04l.12-.06c.3-.07,1.01,0,1.38,0,.14-.13.41-.03.6-.06v-3.47h-1.44ZM17.97,40.08h-.66v-2.76h.66v2.76ZM15.88,24.39v8.69h.06c.31-.03.81-.02,1.14,0h.24v-8.6c.17-2.63,2.7-4.59,4.73-5.93v-1.41c-.11-.02-.17.03-.26.07-.54.25-1.52,1.01-2.01,1.4-1.45,1.16-3.58,3.21-3.84,5.15-.01.1.02.48,0,.51l-.06.12ZM18.15,33.07h1.2s.08-.06.06-.14c.1-2.79-.14-5.68,0-8.46.08-1.65,1.76-3.12,3.04-4.03.54-.39,1.14-.69,1.7-1.06v-1.29c-.1-.01-.19,0-.28.05-.34.14-1.14.68-1.49.91-1.8,1.18-4.25,3.12-4.41,5.42-.19,2.74.15,5.69,0,8.45-.02.08.03.1.06.14h.12ZM24.32,17.44v15.63h1.38l-.06-15.69c-.55-.31-.79-.28-1.32.06ZM26.42,18.07c.15.13,1.36.88,1.44.81-.01-.45-.07-.89-.06-1.35.03-2.97.1-5.95.07-8.93l-.06-.17-1.38-.93v10.57ZM22.68,8.15l-.03-.06c-.1.07-.42.28-.42.39v10.39l1.38-.81V7.44l-.68.43c-.07.08-.14.16-.22.23-.01,0,0,.05-.03.06ZM24.32,6.9v8.69c.2,0,.48-.27.64-.29.14-.01.53.23.68.29.02-.01.15.04.12-.09-.06-2.59.09-5.21-.07-7.79-.01-.23.05-.65,0-.83-.01-.04-.68-.52-.75-.52-.09,0-.51.38-.57.48l-.06.06ZM22.41,43.62c.3-.02.66-.01.96,0,.25.04.16-.05.19-.26l.05-.04c-.1-2.45.08-4.97,0-7.43h-1.38c.08,2.54-.11,5.14,0,7.67l.18.06ZM16.54,43.62h2.88c.09-.29-.07-1.09,0-1.44h-3.54c.07.35-.09,1.16,0,1.44h.66ZM27.86,42.33s-.05-.15-.09-.15h-3.45c.05.43-.07,1.03,0,1.44h.06c.2-.02.45,0,.66,0h.06c.3,0,.6,0,.9,0,.22,0,.44,0,.66,0h1.2c.02-.06.02-1.18,0-1.29ZM24.96,15.52c-.08,0-.58.24-.69.3-.13.06-.48.2-.48.33v1.35c.12-.09.3-.12.42-.18.02-.01.06-.09.14-.13.77-.4.69-.33,1.42.07,0,0,.02.06.06.09.12.06.3.05.42.15v-1.35l-.66-.45c-.22.04-.36-.21-.62-.18ZM28.52,28.16v1.44h1.44v-1.44h-1.44ZM28.52,30.26v1.44h1.44v-1.44h-1.44ZM21.51,43.62c.09-.27-.07-1.1,0-1.44h-1.44v1.44c0,.06,1.03,0,1.14,0h.3ZM21.51,41.52c.09-.29-.07-1.09,0-1.44h-1.44c.05.27-.09,1.29.06,1.44h1.38ZM28.7,43.62c.26-.02.7-.02.96,0h.24c.13-.37-.02-1.02.06-1.44h-1.44c.07.36-.09,1.14,0,1.44h.18ZM15.88,33.79c.07.34-.09,1.1,0,1.38h1.38c-.03-.21.19-1.28,0-1.38-.01,0-.04,0-.06,0-.4-.06-.91.04-1.32,0ZM18.03,35.05s0,.1,0,.12c.38-.04.86.05,1.23,0,.13-.02.07-.11.15-.18.02-.4-.02-.8,0-1.2h-1.38c.03.41-.04.86,0,1.26Z"/>
</svg>